<svg width="20" height="21" viewBox="0 0 20 21" fill="none" xmlns="http://www.w3.org/2000/svg">
<path d="M9.99985 13.5C6.82977 13.5 4.01065 15.0306 2.21585 17.406C1.82956 17.9172 1.63641 18.1728 1.64273 18.5183C1.64761 18.7852 1.81521 19.1219 2.02522 19.2867C2.29704 19.5 2.67372 19.5 3.42708 19.5H16.5726C17.326 19.5 17.7027 19.5 17.9745 19.2867C18.1845 19.1219 18.3521 18.7852 18.357 18.5183C18.3633 18.1728 18.1701 17.9172 17.7839 17.406C15.9891 15.0306 13.1699 13.5 9.99985 13.5Z" stroke="#6B6B6B" stroke-width="2" stroke-linecap="round" stroke-linejoin="round"/>
<path d="M9.99985 10.5C12.4851 10.5 14.4999 8.48528 14.4999 6C14.4999 3.51472 12.4851 1.5 9.99985 1.5C7.51457 1.5 5.49985 3.51472 5.49985 6C5.49985 8.48528 7.51457 10.5 9.99985 10.5Z" stroke="#6B6B6B" stroke-width="2" stroke-linecap="round" stroke-linejoin="round"/>
</svg>
