<svg width="27" height="26" viewBox="0 0 27 26" fill="none" xmlns="http://www.w3.org/2000/svg">
<path d="M9.65664 25V15.5195C9.65664 14.802 9.65664 14.4432 9.79628 14.1692C9.91911 13.9281 10.1151 13.7321 10.3562 13.6093C10.6302 13.4696 10.989 13.4696 11.7065 13.4696H15.2937C16.0112 13.4696 16.37 13.4696 16.644 13.6093C16.8851 13.7321 17.0811 13.9281 17.2039 14.1692C17.3436 14.4432 17.3436 14.802 17.3436 15.5195V25M12.2416 1.63693L3.55245 8.39517C2.97161 8.84693 2.6812 9.07281 2.47197 9.35569C2.28664 9.60627 2.14858 9.88855 2.06457 10.1887C1.96973 10.5275 1.96973 10.8954 1.96973 11.6313V20.9003C1.96973 22.3353 1.96973 23.0529 2.249 23.601C2.49466 24.0831 2.88664 24.4751 3.36877 24.7207C3.91688 25 4.63439 25 6.06941 25H20.9308C22.3658 25 23.0833 25 23.6314 24.7207C24.1136 24.4751 24.5055 24.0831 24.7512 23.601C25.0305 23.0529 25.0305 22.3353 25.0305 20.9003V11.6313C25.0305 10.8954 25.0305 10.5275 24.9356 10.1887C24.8516 9.88855 24.7136 9.60627 24.5282 9.35569C24.319 9.07281 24.0286 8.84693 23.4477 8.39517L14.7586 1.63693C14.3085 1.28685 14.0834 1.11181 13.8349 1.04453C13.6157 0.985158 13.3845 0.985158 13.1653 1.04453C12.9168 1.11181 12.6917 1.28685 12.2416 1.63693Z" stroke="#BBBABA" stroke-width="2" stroke-linecap="round" stroke-linejoin="round"/>
</svg>
