<svg width="22" height="26" viewBox="0 0 22 26" fill="none" xmlns="http://www.w3.org/2000/svg">
<path d="M13.2085 1.32344V6.28009C13.2085 6.95215 13.2085 7.28818 13.3379 7.54487C13.4518 7.77067 13.6334 7.95425 13.8569 8.06929C14.1109 8.20009 14.4434 8.20009 15.1085 8.20009H20.0135M15.5835 14.2H6.0835M15.5835 19H6.0835M8.4585 9.4H6.0835M13.2085 1H7.0335C5.03831 1 4.04072 1 3.27865 1.39238C2.60833 1.73752 2.06333 2.28825 1.72179 2.96563C1.3335 3.73572 1.3335 4.74381 1.3335 6.76V19.24C1.3335 21.2562 1.3335 22.2643 1.72179 23.0344C2.06333 23.7117 2.60833 24.2625 3.27865 24.6076C4.04072 25 5.03831 25 7.0335 25H14.6335C16.6287 25 17.6263 25 18.3883 24.6076C19.0587 24.2625 19.6037 23.7117 19.9452 23.0344C20.3335 22.2643 20.3335 21.2562 20.3335 19.24V8.2L13.2085 1Z" stroke="#BBBABA" stroke-width="2" stroke-linecap="round" stroke-linejoin="round"/>
</svg>
