<svg width="32" height="26" viewBox="0 0 32 26" fill="none" xmlns="http://www.w3.org/2000/svg">
<path d="M28.129 19.1818V16.6364C28.129 15.2305 26.9929 14.0909 25.5915 14.0909C24.1901 14.0909 23.054 15.2305 23.054 16.6364V19.1818M30.6665 8.27273H1.6665M30.6665 9.72727V5.65455C30.6665 4.0253 30.6665 3.21068 30.3504 2.58839C30.0724 2.04101 29.6287 1.59598 29.0831 1.31707C28.4627 1 27.6507 1 26.0265 1H6.30651C4.68235 1 3.87028 1 3.24993 1.31707C2.70426 1.59598 2.26062 2.04101 1.98259 2.58839C1.6665 3.21068 1.6665 4.0253 1.6665 5.65455V16.7091C1.6665 18.3383 1.6665 19.153 1.98259 19.7752C2.26062 20.3226 2.70426 20.7677 3.24993 21.0466C3.87028 21.3636 4.68235 21.3636 6.3065 21.3636H14.7165M22.8365 25H28.3465C29.1586 25 29.5646 25 29.8748 24.8415C30.1476 24.702 30.3694 24.4795 30.5085 24.2058C30.6665 23.8947 30.6665 23.4873 30.6665 22.6727V21.5091C30.6665 20.6945 30.6665 20.2872 30.5085 19.976C30.3694 19.7023 30.1476 19.4798 29.8748 19.3404C29.5646 19.1818 29.1586 19.1818 28.3465 19.1818H22.8365C22.0244 19.1818 21.6184 19.1818 21.3082 19.3404C21.0354 19.4798 20.8136 19.7023 20.6745 19.976C20.5165 20.2872 20.5165 20.6945 20.5165 21.5091V22.6727C20.5165 23.4873 20.5165 23.8947 20.6745 24.2058C20.8136 24.4795 21.0354 24.702 21.3082 24.8415C21.6184 25 22.0244 25 22.8365 25Z" stroke="#BBBABA" stroke-width="2" stroke-linecap="round" stroke-linejoin="round"/>
</svg>
