<svg width="19" height="19" viewBox="0 0 19 19" fill="none" xmlns="http://www.w3.org/2000/svg">
<path d="M4.67682 0.536638C4.63457 0.542133 4.59232 0.542133 4.53906 0.5C4.12762 0.595258 3.71435 0.681356 3.30475 0.789437C2.79413 0.926828 2.39923 1.23458 2.0833 1.65408C1.68105 2.19449 1.41472 2.79901 1.20165 3.43101C0.964712 4.13079 0.885731 4.84156 0.999611 5.57981C1.0988 6.23196 1.31921 6.84197 1.54329 7.45748C1.91248 8.47784 2.32025 9.47805 2.89148 10.4068C3.76762 11.8375 4.85131 13.0942 6.06541 14.2464C7.0242 15.1532 8.06014 15.9647 9.19893 16.637C10.4534 17.3753 11.8163 17.8626 13.1994 18.2876C13.9157 18.5111 14.6615 18.5715 15.409 18.4048C16.2319 18.2216 17.0052 17.923 17.6976 17.4394C17.9474 17.2617 18.1954 17.0419 18.3699 16.7909C18.7868 16.1864 18.9062 15.483 18.9466 14.7667C18.9613 14.5121 18.875 14.327 18.6601 14.2006C18.2615 13.9625 17.8666 13.7134 17.4607 13.4807C16.704 13.0466 15.9031 12.6857 15.1868 12.1746C15.1207 12.1269 15.0398 12.094 14.9645 12.0573C14.6945 11.9218 14.4374 11.9438 14.2023 12.1416C14.0866 12.2369 13.9672 12.3358 13.868 12.4475C13.4547 12.911 13.0543 13.3781 12.6392 13.8379C12.1929 14.3344 11.9688 14.3893 11.3939 14.0651C10.7841 13.7207 10.1798 13.3598 9.59935 12.9659C8.0932 11.9493 6.90114 10.6303 5.96806 9.0787C5.71643 8.6592 5.48867 8.23054 5.25907 7.80188C5.11029 7.5216 5.16723 7.25598 5.38764 7.04348C5.67051 6.77236 5.97174 6.51773 6.26194 6.25211C6.60909 5.93519 6.9691 5.6256 7.29604 5.2922C7.52564 5.05955 7.53299 4.76645 7.3787 4.47518C7.30339 4.34695 7.22625 4.21505 7.14543 4.08682C7.05726 3.95126 6.95257 3.82303 6.87726 3.68198C6.58338 3.15623 6.30786 2.62132 6.00847 2.10106C5.74949 1.65042 5.47581 1.21077 5.20397 0.771118C5.08274 0.571443 4.89539 0.518319 4.67682 0.536638Z" fill="#1E1E1E"/>
</svg>
