<svg width="19" height="19" viewBox="0 0 19 19" fill="none" xmlns="http://www.w3.org/2000/svg">
<path fill-rule="evenodd" clip-rule="evenodd" d="M18.5 9.42594C18.498 14.3427 14.4791 18.3433 9.53768 18.3453H9.53397C8.034 18.3448 6.56013 17.9703 5.25108 17.2597L0.5 18.5L1.77147 13.878C0.987165 12.5253 0.574468 10.9909 0.575141 9.4189C0.577107 4.50106 4.59762 0.5 9.5376 0.5C11.9351 0.50103 14.1854 1.42992 15.8775 3.11588C17.5696 4.80176 18.5009 7.04271 18.5 9.42594ZM5.47121 15.6449L2.65185 16.381L3.40438 13.6453L3.22727 13.3648C2.48159 12.1845 2.08776 10.8202 2.08834 9.41942C2.08997 5.33194 5.43169 2.00652 9.54062 2.00652C11.5303 2.00721 13.4006 2.77931 14.807 4.18062C16.2134 5.58193 16.9875 7.4445 16.9867 9.42542C16.9851 13.5132 13.6434 16.839 9.53768 16.839H9.53467C8.19797 16.8384 6.88694 16.481 5.74323 15.8056L5.47121 15.6449ZM13.7462 11.3463C13.9024 11.4214 14.0079 11.4721 14.0529 11.547C14.1089 11.6399 14.1089 12.0861 13.9224 12.6068C13.7357 13.1274 12.8411 13.6025 12.4108 13.6665C12.025 13.7239 11.5367 13.7478 11.0003 13.5781C10.675 13.4754 10.2579 13.3383 9.72367 13.1087C7.62428 12.2065 6.20552 10.1815 5.93738 9.79877C5.9186 9.77196 5.90546 9.75321 5.89813 9.74347L5.89633 9.74107C5.77782 9.58372 4.98373 8.52928 4.98373 7.43799C4.98373 6.41141 5.49043 5.87332 5.72367 5.62564C5.73965 5.60867 5.75434 5.59306 5.7675 5.57876C5.97277 5.35563 6.21539 5.29985 6.36467 5.29985C6.51395 5.29985 6.6634 5.30123 6.79387 5.30775C6.80997 5.30855 6.82672 5.30845 6.84403 5.30835C6.97453 5.30759 7.13723 5.30664 7.29773 5.69032C7.35947 5.83797 7.44981 6.05686 7.5451 6.28773C7.7378 6.75462 7.95071 7.27049 7.98817 7.34514C8.04417 7.4567 8.08148 7.5868 8.00684 7.7356C7.99563 7.75791 7.98527 7.77897 7.97537 7.79909C7.9193 7.913 7.87806 7.99679 7.78291 8.10736C7.74549 8.15084 7.70681 8.19772 7.66814 8.24459C7.5911 8.33796 7.51407 8.43133 7.44699 8.49783C7.33488 8.60897 7.21818 8.72954 7.34881 8.95266C7.47944 9.17579 7.92887 9.90558 8.5946 10.4966C9.31023 11.1318 9.9322 11.4003 10.2475 11.5364C10.309 11.563 10.3589 11.5845 10.3955 11.6027C10.6193 11.7143 10.75 11.6957 10.8806 11.547C11.0113 11.3982 11.4404 10.8962 11.5897 10.6731C11.739 10.45 11.8883 10.4872 12.0935 10.5615C12.2988 10.636 13.3998 11.1751 13.6238 11.2866C13.6675 11.3084 13.7084 11.3281 13.7462 11.3463Z" fill="#1E1E1E"/>
</svg>
