<svg width="115" height="44" viewBox="0 0 115 44" fill="none" xmlns="http://www.w3.org/2000/svg">
<g clip-path="url(#clip0_19_2946)">
<path d="M20.246 41.6978V9.86296L12.9432 14.3258V7.13117L20.246 2.7495H26.8997V41.6978H20.246ZM51.214 42.5092C48.4552 42.5092 46.0209 41.9231 43.9112 40.7511C41.8015 39.561 40.1516 37.9111 38.9615 35.8014C37.7895 33.6917 37.2034 31.2575 37.2034 28.4986V15.9486C37.2034 13.1898 37.7895 10.7555 38.9615 8.64583C40.1516 6.53613 41.8015 4.89526 43.9112 3.7232C46.0209 2.53312 48.4552 1.93808 51.214 1.93808C53.9728 1.93808 56.3981 2.53312 58.4898 3.7232C60.5994 4.89526 62.2493 6.53613 63.4394 8.64583C64.6295 10.7555 65.2246 13.1898 65.2246 15.9486V28.4986C65.2246 31.2575 64.6295 33.6917 63.4394 35.8014C62.2493 37.9111 60.5994 39.561 58.4898 40.7511C56.3981 41.9231 53.9728 42.5092 51.214 42.5092ZM51.214 36.3153C52.5844 36.3153 53.8286 35.9908 54.9465 35.3416C56.0645 34.6744 56.948 33.7909 57.5972 32.691C58.2463 31.573 58.5709 30.3288 58.5709 28.9584V15.4618C58.5709 14.0733 58.2463 12.8292 57.5972 11.7292C56.948 10.6113 56.0645 9.72773 54.9465 9.07859C53.8286 8.41142 52.5844 8.07784 51.214 8.07784C49.8436 8.07784 48.5994 8.41142 47.4815 9.07859C46.3635 9.72773 45.48 10.6113 44.8308 11.7292C44.1817 12.8292 43.8571 14.0733 43.8571 15.4618V28.9584C43.8571 30.3288 44.1817 31.573 44.8308 32.691C45.48 33.7909 46.3635 34.6744 47.4815 35.3416C48.5994 35.9908 49.8436 36.3153 51.214 36.3153ZM86.8194 42.5092C84.0605 42.5092 81.6263 41.9231 79.5166 40.7511C77.4069 39.561 75.757 37.9111 74.5669 35.8014C73.3948 33.6917 72.8088 31.2575 72.8088 28.4986V15.9486C72.8088 13.1898 73.3948 10.7555 74.5669 8.64583C75.757 6.53613 77.4069 4.89526 79.5166 3.7232C81.6263 2.53312 84.0605 1.93808 86.8194 1.93808C89.5782 1.93808 92.0035 2.53312 94.0951 3.7232C96.2048 4.89526 97.8547 6.53613 99.0448 8.64583C100.235 10.7555 100.83 13.1898 100.83 15.9486V28.4986C100.83 31.2575 100.235 33.6917 99.0448 35.8014C97.8547 37.9111 96.2048 39.561 94.0951 40.7511C92.0035 41.9231 89.5782 42.5092 86.8194 42.5092ZM86.8194 36.3153C88.1898 36.3153 89.434 35.9908 90.5519 35.3416C91.6699 34.6744 92.5534 33.7909 93.2026 32.691C93.8517 31.573 94.1763 30.3288 94.1763 28.9584V15.4618C94.1763 14.0733 93.8517 12.8292 93.2026 11.7292C92.5534 10.6113 91.6699 9.72773 90.5519 9.07859C89.434 8.41142 88.1898 8.07784 86.8194 8.07784C85.449 8.07784 84.2048 8.41142 83.0868 9.07859C81.9689 9.72773 81.0853 10.6113 80.4362 11.7292C79.787 12.8292 79.4625 14.0733 79.4625 15.4618V28.9584C79.4625 30.3288 79.787 31.573 80.4362 32.691C81.0853 33.7909 81.9689 34.6744 83.0868 35.3416C84.2048 35.9908 85.449 36.3153 86.8194 36.3153Z" fill="white"/>
</g>
<defs>
<clipPath id="clip0_19_2946">
<rect width="113.62" height="42.6075" fill="white" transform="translate(0.820801 0.798828)"/>
</clipPath>
</defs>
</svg>
