<svg width="44" height="44" viewBox="0 0 44 44" fill="none" xmlns="http://www.w3.org/2000/svg">
<path d="M9.57813 23.8777H14.9041M4.2522 16.7765L7.80282 18.5518L10.0586 11.7844C10.5242 10.3876 10.757 9.68913 11.1889 9.17277C11.5702 8.71678 12.0599 8.36383 12.613 8.14627C13.2395 7.8999 13.9757 7.8999 15.4481 7.8999H28.5626C30.035 7.8999 30.7712 7.8999 31.3976 8.14627C31.9508 8.36383 32.4405 8.71678 32.8218 9.17277C33.2536 9.68913 33.4864 10.3876 33.952 11.7844L36.2078 18.5518L39.7584 16.7765M29.1066 23.8777H34.4325M12.7737 18.5518H31.2369C34.2197 18.5518 35.7111 18.5518 36.8504 19.1323C37.8526 19.6429 38.6673 20.4576 39.1779 21.4598C39.7584 22.5991 39.7584 24.0905 39.7584 27.0733V31.8666C39.7584 32.6915 39.7584 33.104 39.6902 33.447C39.41 34.8555 38.309 35.9565 36.9005 36.2367C36.5575 36.3049 36.1451 36.3049 35.3202 36.3049H34.4325C32.4715 36.3049 30.8819 34.7152 30.8819 32.7543C30.8819 32.264 30.4845 31.8666 29.9942 31.8666H14.0164C13.5262 31.8666 13.1288 32.264 13.1288 32.7543C13.1288 34.7152 11.5391 36.3049 9.57813 36.3049H8.69048C7.86557 36.3049 7.45312 36.3049 7.11013 36.2367C5.70163 35.9565 4.60059 34.8555 4.32042 33.447C4.2522 33.104 4.2522 32.6915 4.2522 31.8666V27.0733C4.2522 24.0905 4.2522 22.5991 4.83269 21.4598C5.34331 20.4576 6.15807 19.6429 7.16021 19.1323C8.29949 18.5518 9.79089 18.5518 12.7737 18.5518Z" stroke="#D8EAE5" stroke-width="3.55062" stroke-linecap="round" stroke-linejoin="round"/>
</svg>
