<svg width="43" height="44" viewBox="0 0 43 44" fill="none" xmlns="http://www.w3.org/2000/svg">
<path d="M10.7277 11.4509L18.7166 19.4398M10.7277 11.4509H5.40178L3.62646 6.12492L5.40178 4.34961L10.7277 6.12492V11.4509ZM34.2666 5.66514L29.6017 10.33C28.8987 11.033 28.5471 11.3846 28.4154 11.7899C28.2996 12.1465 28.2996 12.5306 28.4154 12.8871C28.5471 13.2925 28.8987 13.644 29.6017 14.347L30.0229 14.7683C30.726 15.4713 31.0775 15.8228 31.4829 15.9545C31.8394 16.0704 32.2235 16.0704 32.5801 15.9545C32.9854 15.8228 33.3369 15.4713 34.04 14.7683L38.4036 10.4047C38.8735 11.5483 39.1327 12.8008 39.1327 14.1138C39.1327 19.5065 34.7611 23.878 29.3685 23.878C28.7184 23.878 28.0831 23.8145 27.4685 23.6933C26.6054 23.5231 26.1739 23.438 25.9123 23.464C25.6342 23.4918 25.4971 23.5335 25.2507 23.6653C25.0189 23.7894 24.7864 24.0219 24.3213 24.4869L11.6154 37.1929C10.1447 38.6636 7.76015 38.6636 6.28944 37.1929C4.81872 35.7221 4.81872 33.3376 6.28944 31.8669L18.9954 19.161C19.4604 18.696 19.6929 18.4634 19.817 18.2316C19.9489 17.9852 19.9906 17.8481 20.0183 17.57C20.0443 17.3084 19.9592 16.8769 19.789 16.0138C19.6678 15.3993 19.6043 14.764 19.6043 14.1138C19.6043 8.7212 23.9759 4.34961 29.3685 4.34961C31.1536 4.34961 32.8268 4.82863 34.2666 5.66514ZM21.3797 27.4286L31.1438 37.1927C32.6145 38.6634 34.999 38.6634 36.4697 37.1927C37.9404 35.722 37.9404 33.3375 36.4697 31.8668L28.437 23.8342C27.8684 23.7804 27.3139 23.6778 26.7779 23.5307C26.0872 23.3411 25.3296 23.4787 24.8231 23.9852L21.3797 27.4286Z" stroke="#D8EAE5" stroke-width="3.55062" stroke-linecap="round" stroke-linejoin="round"/>
</svg>
