<svg width="44" height="44" viewBox="0 0 44 44" fill="none" xmlns="http://www.w3.org/2000/svg">
<path d="M4.24121 22.1024L21.3592 30.6614C21.5921 30.7779 21.7085 30.8361 21.8306 30.859C21.9388 30.8793 22.0498 30.8793 22.158 30.859C22.2802 30.8361 22.3966 30.7779 22.6295 30.6614L39.7475 22.1024M4.24121 30.979L21.3592 39.538C21.5921 39.6544 21.7085 39.7127 21.8306 39.7356C21.9388 39.7559 22.0498 39.7559 22.158 39.7356C22.2802 39.7127 22.3966 39.6544 22.6295 39.538L39.7475 30.979M4.24121 13.2259L21.3592 4.66691C21.5921 4.55046 21.7085 4.49224 21.8306 4.46932C21.9388 4.44903 22.0498 4.44903 22.158 4.46932C22.2802 4.49224 22.3966 4.55046 22.6295 4.66691L39.7475 13.2259L22.6295 21.7849C22.3966 21.9013 22.2802 21.9595 22.158 21.9825C22.0498 22.0027 21.9388 22.0027 21.8306 21.9825C21.7085 21.9595 21.5921 21.9013 21.3592 21.7849L4.24121 13.2259Z" stroke="#D8EAE5" stroke-width="3.55062" stroke-linecap="round" stroke-linejoin="round"/>
</svg>
