<svg width="15" height="16" viewBox="0 0 15 16" fill="none" xmlns="http://www.w3.org/2000/svg">
<g clip-path="url(#clip0_9_3727)">
<path fill-rule="evenodd" clip-rule="evenodd" d="M6.84144 1.67481H8.15856C8.86658 1.67479 9.44516 1.67478 9.90195 1.73619C10.3794 1.80039 10.7934 1.93931 11.1238 2.26974C11.4542 2.60018 11.5932 3.01414 11.6574 3.49161C11.6889 3.72642 11.7043 3.99342 11.7117 4.29365C12.3731 4.40034 12.9152 4.61038 13.3492 5.04445C13.8169 5.51218 14.0245 6.10527 14.123 6.83804C14.2188 7.55005 14.2188 8.45982 14.2188 9.60842V9.67893C14.2188 10.8275 14.2188 11.7373 14.123 12.4493C14.0245 13.1821 13.8169 13.7752 13.3492 14.2429C12.8815 14.7106 12.2884 14.9182 11.5556 15.0167C10.8436 15.1124 9.93386 15.1124 8.78526 15.1124H6.21474C5.06614 15.1124 4.15637 15.1124 3.44436 15.0167C2.7116 14.9182 2.1185 14.7106 1.65078 14.2429C1.18305 13.7752 0.975477 13.1821 0.87696 12.4493C0.781232 11.7373 0.78124 10.8275 0.78125 9.67894V9.60842C0.78124 8.45982 0.781232 7.55005 0.87696 6.83804C0.975477 6.10527 1.18305 5.51218 1.65078 5.04445C2.08485 4.61038 2.62689 4.40034 3.28828 4.29365C3.29573 3.99342 3.31107 3.72642 3.34264 3.49161C3.40683 3.01414 3.54576 2.60018 3.87619 2.26974C4.20662 1.93931 4.62058 1.80039 5.09805 1.73619C5.55484 1.67478 6.13342 1.67479 6.84144 1.67481ZM3.28125 5.24739C2.82438 5.3391 2.53484 5.48621 2.31369 5.70737C2.04918 5.97187 1.89064 6.33415 1.8061 6.96296C1.71975 7.60525 1.71875 8.45191 1.71875 9.64368C1.71875 10.8354 1.71975 11.6821 1.8061 12.3244C1.89064 12.9532 2.04918 13.3155 2.31369 13.58C2.5782 13.8445 2.94047 14.003 3.56928 14.0876C4.21157 14.1739 5.05824 14.1749 6.25 14.1749H8.75C9.94176 14.1749 10.7884 14.1739 11.4307 14.0876C12.0595 14.003 12.4218 13.8445 12.6863 13.58C12.9508 13.3155 13.1094 12.9532 13.1939 12.3244C13.2803 11.6821 13.2812 10.8354 13.2812 9.64368C13.2812 8.45191 13.2803 7.60525 13.1939 6.96296C13.1094 6.33415 12.9508 5.97187 12.6863 5.70737C12.4652 5.48621 12.1756 5.3391 11.7188 5.24739V5.97262C11.7188 6.00145 11.7188 6.02994 11.7188 6.0581C11.7193 6.54938 11.7198 6.93852 11.5565 7.2871C11.3932 7.63569 11.094 7.88449 10.7162 8.1986C10.6946 8.2166 10.6727 8.23482 10.6505 8.25328L10.1773 8.64766C9.62331 9.10932 9.17431 9.48351 8.77801 9.73838C8.3652 10.0039 7.96317 10.1716 7.5 10.1716C7.03683 10.1716 6.6348 10.0039 6.22199 9.73838C5.8257 9.48351 5.3767 9.10933 4.82273 8.64767L4.34945 8.25327C4.3273 8.23482 4.3054 8.2166 4.28375 8.1986C3.906 7.88449 3.60679 7.63569 3.44352 7.2871C3.28025 6.93852 3.28067 6.54938 3.28119 6.05809C3.28122 6.02994 3.28125 6.00145 3.28125 5.97262L3.28125 5.24739ZM5.22297 2.66533C4.84946 2.71555 4.66631 2.80545 4.5391 2.93266C4.41189 3.05987 4.32199 3.24302 4.27178 3.61653C4.21975 4.00352 4.21875 4.51873 4.21875 5.26856V5.97262C4.21875 6.59219 4.22911 6.75409 4.29251 6.88946C4.35591 7.02482 4.47366 7.13643 4.94963 7.53307L5.3994 7.90788C5.9825 8.39379 6.38733 8.73007 6.72911 8.94989C7.05996 9.16267 7.28433 9.2341 7.5 9.2341C7.71567 9.2341 7.94004 9.16267 8.27089 8.94989C8.61267 8.73007 9.0175 8.39379 9.60061 7.90788L10.0504 7.53307C10.5263 7.13643 10.6441 7.02482 10.7075 6.88946C10.7709 6.75409 10.7812 6.59219 10.7812 5.97262V5.26856C10.7812 4.51873 10.7803 4.00352 10.7282 3.61653C10.678 3.24302 10.5881 3.05987 10.4609 2.93266C10.3337 2.80545 10.1505 2.71555 9.77703 2.66533C9.39003 2.6133 8.87482 2.61231 8.125 2.61231H6.875C6.12518 2.61231 5.60997 2.6133 5.22297 2.66533ZM5.78125 4.64356C5.78125 4.38467 5.99112 4.17481 6.25 4.17481H8.75C9.00888 4.17481 9.21875 4.38467 9.21875 4.64356C9.21875 4.90244 9.00888 5.11231 8.75 5.11231H6.25C5.99112 5.11231 5.78125 4.90244 5.78125 4.64356ZM6.40625 6.51856C6.40625 6.25967 6.61612 6.04981 6.875 6.04981H8.125C8.38388 6.04981 8.59375 6.25967 8.59375 6.51856C8.59375 6.77744 8.38388 6.98731 8.125 6.98731H6.875C6.61612 6.98731 6.40625 6.77744 6.40625 6.51856Z" fill="#BBBABA"/>
</g>
<defs>
<clipPath id="clip0_9_3727">
<rect width="15" height="15" fill="white" transform="translate(0 0.893555)"/>
</clipPath>
</defs>
</svg>
