<svg width="15" height="15" viewBox="0 0 15 15" fill="none" xmlns="http://www.w3.org/2000/svg">
<path d="M13.75 7.39355C13.75 10.3398 13.75 11.813 12.8347 12.7283C11.9194 13.6436 10.4463 13.6436 7.5 13.6436C4.55372 13.6436 3.08058 13.6436 2.16529 12.7283C1.25 11.813 1.25 10.3398 1.25 7.39355C1.25 4.44728 1.25 2.97414 2.16529 2.05885C3.08058 1.14355 4.55372 1.14355 7.5 1.14355" stroke="#BBBABA" stroke-width="0.9375" stroke-linecap="round"/>
<path d="M10.0968 2.0399L11.5701 3.31676C12.5843 4.19571 13.0914 4.63519 13.0914 5.20598C13.0914 5.77676 12.5843 6.21624 11.5701 7.0952L10.0968 8.37206C9.65087 8.75856 9.42789 8.95181 9.2452 8.86838C9.0625 8.78496 9.0625 8.48989 9.0625 7.89975V6.94705C7.1875 6.94705 5.15625 7.81759 4.375 9.26848C4.375 4.62562 7.15278 3.46491 9.0625 3.46491V2.5122C9.0625 1.92207 9.0625 1.627 9.2452 1.54358C9.42789 1.46015 9.65087 1.6534 10.0968 2.0399Z" stroke="#BBBABA" stroke-width="0.9375" stroke-linecap="round" stroke-linejoin="round"/>
</svg>
