<svg width="15" height="15" viewBox="0 0 15 15" fill="none" xmlns="http://www.w3.org/2000/svg">
<path d="M11.25 6.14356C11.25 6.48873 10.9702 6.76856 10.625 6.76856C10.2798 6.76856 10 6.48873 10 6.14356C10 5.79838 10.2798 5.51856 10.625 5.51856C10.9702 5.51856 11.25 5.79838 11.25 6.14356Z" fill="#BBBABA"/>
<path fill-rule="evenodd" clip-rule="evenodd" d="M7.4657 0.674805H7.5343C8.38904 0.674792 9.07799 0.674782 9.61984 0.747632C10.1824 0.823267 10.6561 0.985076 11.0323 1.36127C11.4948 1.82376 11.6378 2.44054 11.6883 3.2057C11.8414 3.21592 11.9852 3.22953 12.1198 3.24763C12.6824 3.32327 13.1561 3.48508 13.5323 3.86127C13.9085 4.23747 14.0703 4.71114 14.1459 5.27371C14.2188 5.81557 14.2188 6.50452 14.2188 7.35926V7.42785C14.2188 8.28259 14.2188 8.97154 14.1459 9.5134C14.0703 10.076 13.9085 10.5496 13.5323 10.9258C13.0698 11.3883 12.453 11.5314 11.6879 11.5818C11.6776 11.735 11.664 11.8787 11.6459 12.0134C11.5703 12.576 11.4085 13.0496 11.0323 13.4258C10.6561 13.802 10.1824 13.9638 9.61985 14.0395C9.07799 14.1123 8.38904 14.1123 7.53429 14.1123H7.46571C6.61096 14.1123 5.92201 14.1123 5.38016 14.0395C4.81759 13.9638 4.34392 13.802 3.96772 13.4258C3.59152 13.0496 3.42971 12.576 3.35408 12.0134C3.33597 11.8787 3.32236 11.735 3.31214 11.5818C2.54698 11.5314 1.93021 11.3883 1.46772 10.9258C1.09152 10.5496 0.929713 10.076 0.854077 9.5134C0.781227 8.97155 0.781237 8.2826 0.78125 7.42785V7.35926C0.781237 6.50452 0.781227 5.81557 0.854077 5.27371C0.929713 4.71114 1.09152 4.23747 1.46772 3.86127C1.84392 3.48508 2.31759 3.32327 2.88016 3.24763C3.01484 3.22953 3.1586 3.21592 3.31175 3.2057C3.3622 2.44054 3.50523 1.82376 3.96772 1.36127C4.34392 0.985076 4.81759 0.823267 5.38016 0.747632C5.92201 0.674782 6.61096 0.674792 7.4657 0.674805ZM4.25447 3.17665C4.47754 3.1748 4.71446 3.1748 4.9657 3.17481H10.0343C10.2855 3.1748 10.5225 3.1748 10.7455 3.17665C10.6943 2.53861 10.5791 2.23388 10.3694 2.02419C10.1964 1.85121 9.95354 1.73843 9.49493 1.67677C9.02283 1.6133 8.39714 1.61231 7.5 1.61231C6.60286 1.61231 5.97717 1.6133 5.50507 1.67677C5.04647 1.73843 4.80361 1.85121 4.63063 2.02419C4.42094 2.23388 4.30568 2.53861 4.25447 3.17665ZM3.28309 10.6391C3.28124 10.416 3.28125 10.1791 3.28125 9.92785L3.28125 9.11231H3.125C2.86612 9.11231 2.65625 8.90244 2.65625 8.64356C2.65625 8.38467 2.86612 8.17481 3.125 8.17481H11.875C12.1339 8.17481 12.3438 8.38467 12.3438 8.64356C12.3438 8.90244 12.1339 9.11231 11.875 9.11231H11.7188V9.92785C11.7188 10.1791 11.7188 10.416 11.7169 10.6391C12.3549 10.5879 12.6597 10.4726 12.8694 10.2629C13.0423 10.0899 13.1551 9.84709 13.2168 9.38848C13.2803 8.91639 13.2813 8.29069 13.2813 7.39356C13.2813 6.49642 13.2803 5.87072 13.2168 5.39863C13.1551 4.94002 13.0423 4.69716 12.8694 4.52419C12.6964 4.35121 12.4535 4.23843 11.9949 4.17677C11.5228 4.1133 10.8971 4.11231 10 4.11231H5C4.10287 4.11231 3.47717 4.1133 3.00508 4.17677C2.54647 4.23843 2.30361 4.35121 2.13063 4.52419C1.95765 4.69716 1.84488 4.94002 1.78322 5.39863C1.71975 5.87072 1.71875 6.49642 1.71875 7.39356C1.71875 8.29069 1.71975 8.91639 1.78322 9.38848C1.84488 9.84709 1.95765 10.0899 2.13063 10.2629C2.34033 10.4726 2.64506 10.5879 3.28309 10.6391ZM10.7813 9.11231H4.21875V9.89356C4.21875 10.7907 4.21975 11.4164 4.28322 11.8885C4.34488 12.3471 4.45765 12.5899 4.63063 12.7629C4.80361 12.9359 5.04647 13.0487 5.50508 13.1103C5.97717 13.1738 6.60287 13.1748 7.5 13.1748C8.39714 13.1748 9.02283 13.1738 9.49493 13.1103C9.95354 13.0487 10.1964 12.9359 10.3694 12.7629C10.5423 12.5899 10.6551 12.3471 10.7168 11.8885C10.7803 11.4164 10.7813 10.7907 10.7813 9.89355V9.11231ZM3.28125 6.14356C3.28125 5.88467 3.49112 5.67481 3.75 5.67481H5.625C5.88388 5.67481 6.09375 5.88467 6.09375 6.14356C6.09375 6.40244 5.88388 6.61231 5.625 6.61231H3.75C3.49112 6.61231 3.28125 6.40244 3.28125 6.14356ZM5.15625 10.3966C5.15625 10.1377 5.36612 9.92785 5.625 9.92785H9.375C9.63388 9.92785 9.84375 10.1377 9.84375 10.3966C9.84375 10.6555 9.63388 10.8654 9.375 10.8654H5.625C5.36612 10.8654 5.15625 10.6555 5.15625 10.3966ZM5.15625 11.9591C5.15625 11.7002 5.36612 11.4904 5.625 11.4904H8.125C8.38388 11.4904 8.59375 11.7002 8.59375 11.9591C8.59375 12.218 8.38388 12.4279 8.125 12.4279H5.625C5.36612 12.4279 5.15625 12.218 5.15625 11.9591Z" fill="#BBBABA"/>
</svg>
