<svg width="15" height="13" viewBox="0 0 15 13" fill="none" xmlns="http://www.w3.org/2000/svg">
<path fill-rule="evenodd" clip-rule="evenodd" d="M11.875 1.6123C11.0983 1.6123 10.4688 2.2419 10.4688 3.01855C10.4688 3.79521 11.0983 4.4248 11.875 4.4248C12.6517 4.4248 13.2812 3.79521 13.2812 3.01855C13.2812 2.2419 12.6517 1.6123 11.875 1.6123ZM9.53125 3.01855C9.53125 1.72414 10.5806 0.674805 11.875 0.674805C13.1694 0.674805 14.2188 1.72414 14.2188 3.01855C14.2188 4.31297 13.1694 5.3623 11.875 5.3623C10.5806 5.3623 9.53125 4.31297 9.53125 3.01855ZM6.21474 1.9248L8.125 1.9248C8.38388 1.9248 8.59375 2.13467 8.59375 2.39355C8.59375 2.65244 8.38388 2.8623 8.125 2.8623H6.25C5.05824 2.8623 4.21157 2.8633 3.56928 2.94965C2.94047 3.03419 2.5782 3.19274 2.31369 3.45724C2.04918 3.72175 1.89064 4.08403 1.8061 4.71283C1.71975 5.35513 1.71875 6.20179 1.71875 7.39355C1.71875 8.58532 1.71975 9.43198 1.8061 10.0743C1.89064 10.7031 2.04918 11.0654 2.31369 11.3299C2.5782 11.5944 2.94047 11.7529 3.56928 11.8375C4.21157 11.9238 5.05824 11.9248 6.25 11.9248H8.75C9.94176 11.9248 10.7884 11.9238 11.4307 11.8375C12.0595 11.7529 12.4218 11.5944 12.6863 11.3299C12.9508 11.0654 13.1094 10.7031 13.1939 10.0743C13.2803 9.43198 13.2812 8.58532 13.2812 7.39355C13.2812 7.16047 13.2829 6.9902 13.2844 6.84383C13.2867 6.60681 13.2884 6.43244 13.2814 6.15546C13.2748 5.89666 13.4793 5.68153 13.7381 5.67496C13.9969 5.66838 14.212 5.87285 14.2186 6.13165C14.226 6.42295 14.2241 6.62179 14.2217 6.87308C14.2203 7.0193 14.2188 7.18327 14.2188 7.39355V7.42881C14.2188 8.57741 14.2188 9.48718 14.123 10.1992C14.0245 10.932 13.8169 11.5251 13.3492 11.9928C12.8815 12.4605 12.2884 12.6681 11.5556 12.7666C10.8436 12.8623 9.93386 12.8623 8.78526 12.8623H6.21474C5.06614 12.8623 4.15637 12.8623 3.44436 12.7666C2.7116 12.6681 2.1185 12.4605 1.65078 11.9928C1.18305 11.5251 0.975477 10.932 0.87696 10.1992C0.781232 9.48719 0.78124 8.57741 0.78125 7.42881V7.35829C0.78124 6.20969 0.781232 5.29992 0.87696 4.58792C0.975477 3.85515 1.18305 3.26206 1.65078 2.79433C2.1185 2.3266 2.7116 2.11903 3.44436 2.02051C4.15637 1.92479 5.06614 1.92479 6.21474 1.9248ZM3.3899 4.59347C3.55563 4.39459 3.85121 4.36772 4.05009 4.53345L5.3994 5.65788C5.9825 6.14379 6.38733 6.48006 6.72911 6.69988C7.05996 6.91267 7.28433 6.9841 7.5 6.9841C7.71567 6.9841 7.94004 6.91267 8.27089 6.69988C8.61267 6.48006 9.0175 6.14379 9.60061 5.65788C9.79948 5.49214 10.0951 5.51901 10.2608 5.71789C10.4265 5.91677 10.3997 6.21235 10.2008 6.37808L10.1773 6.39765C9.62331 6.85932 9.17431 7.2335 8.77801 7.48838C8.3652 7.75388 7.96317 7.9216 7.5 7.9216C7.03683 7.9216 6.6348 7.75388 6.22199 7.48838C5.8257 7.23351 5.3767 6.85933 4.82273 6.39767L3.44991 5.25366C3.25103 5.08792 3.22416 4.79235 3.3899 4.59347Z" fill="#BBBABA"/>
</svg>
