<svg width="39" height="29" viewBox="0 0 39 29" fill="none" xmlns="http://www.w3.org/2000/svg">
<path d="M36.6426 0.678575C36.5325 0.646042 36.4198 0.623214 36.3057 0.610352H2.19399C2.04921 0.623377 1.90625 0.651969 1.7676 0.695631L19.2499 12.9289L36.6426 0.678575Z" fill="#004F36"/>
<path d="M20.4779 17.2761C20.1191 17.5279 19.6914 17.663 19.2531 17.663C18.8147 17.663 18.387 17.5279 18.0282 17.2761L0.0620117 4.70589V26.1941C0.0620117 26.7596 0.286633 27.3019 0.686457 27.7017C1.08628 28.1015 1.62856 28.3261 2.19399 28.3261H36.3057C36.8712 28.3261 37.4134 28.1015 37.8133 27.7017C38.2131 27.3019 38.4377 26.7596 38.4377 26.1941V4.62914L20.4779 17.2761Z" fill="#004F36"/>
</svg>
