<svg width="39" height="49" viewBox="0 0 39 49" fill="none" xmlns="http://www.w3.org/2000/svg">
<path d="M19.2496 0.935547C14.8847 0.938292 10.651 2.42827 7.24646 5.15986C3.84191 7.89145 1.46975 11.7016 0.521029 15.9622C-0.42769 20.2227 0.103668 24.6794 2.02751 28.5975C3.95135 32.5156 7.15283 35.6612 11.1042 37.5157L17.8993 48.194C18.0437 48.4213 18.2432 48.6084 18.4793 48.7381C18.7153 48.8678 18.9803 48.9358 19.2496 48.9358C19.519 48.9358 19.7839 48.8678 20.02 48.7381C20.2561 48.6084 20.4556 48.4213 20.6 48.194L27.3951 37.5157C31.3464 35.6612 34.5479 32.5156 36.4718 28.5975C38.3956 24.6794 38.927 20.2227 37.9782 15.9622C37.0295 11.7016 34.6574 7.89145 31.2528 5.15986C27.8483 2.42827 23.6146 0.938292 19.2496 0.935547ZM19.2496 28.1351C17.6674 28.1351 16.1207 27.6659 14.8052 26.7869C13.4896 25.9078 12.4642 24.6584 11.8587 23.1966C11.2532 21.7349 11.0948 20.1264 11.4035 18.5745C11.7122 17.0227 12.4741 15.5973 13.5929 14.4785C14.7117 13.3597 16.1371 12.5978 17.6889 12.2891C19.2408 11.9804 20.8493 12.1388 22.3111 12.7443C23.7728 13.3498 25.0222 14.3752 25.9013 15.6907C26.7803 17.0063 27.2495 18.553 27.2495 20.1352C27.247 22.2561 26.4033 24.2895 24.9036 25.7892C23.4039 27.2889 21.3706 28.1326 19.2496 28.1351Z" fill="#004F36"/>
</svg>
