<svg width="39" height="39" viewBox="0 0 39 39" fill="none" xmlns="http://www.w3.org/2000/svg">
<path d="M34.9734 16.1354V16.0679C34.9734 11.9336 33.3311 7.96862 30.4077 5.04523C27.4843 2.12184 23.5193 0.479492 19.385 0.479492C15.2507 0.479492 11.2857 2.12184 8.36234 5.04523C5.43895 7.96862 3.79661 11.9336 3.79661 16.0679V16.1354C2.83143 16.2919 1.95323 16.7862 1.31873 17.5302C0.684232 18.2741 0.334704 19.2193 0.33252 20.1971V25.7951C0.333437 26.8899 0.76877 27.9396 1.54295 28.7138C2.31712 29.488 3.36686 29.9233 4.46171 29.9243H8.99274C9.45211 29.9243 9.89266 29.7418 10.2175 29.4169C10.5423 29.0921 10.7248 28.6516 10.7248 28.1922V17.7999C10.7248 17.3406 10.5423 16.9 10.2175 16.5752C9.89266 16.2504 9.45211 16.0679 8.99274 16.0679H7.2607C7.2607 12.8523 8.53808 9.76846 10.8118 7.49471C13.0856 5.22096 16.1694 3.94358 19.385 3.94358C22.6006 3.94358 25.6844 5.22096 27.9582 7.49471C30.2319 9.76846 31.5093 12.8523 31.5093 16.0679H29.7773C29.3179 16.0679 28.8774 16.2504 28.5525 16.5752C28.2277 16.9 28.0452 17.3406 28.0452 17.7999V28.1922C28.0452 28.6516 28.2277 29.0921 28.5525 29.4169C28.8774 29.7418 29.3179 29.9243 29.7773 29.9243H31.0278C30.7262 30.4491 30.2918 30.8855 29.7683 31.1895C29.2448 31.4935 28.6506 31.6545 28.0452 31.6563H24.2624C23.8539 30.5007 23.0499 29.5267 21.9926 28.9064C20.9354 28.2862 19.6929 28.0598 18.4848 28.267C17.2767 28.4743 16.1808 29.102 15.3907 30.0392C14.6007 30.9763 14.1674 32.1626 14.1674 33.3883C14.1674 34.6141 14.6007 35.8004 15.3907 36.7375C16.1808 37.6747 17.2767 38.3024 18.4848 38.5096C19.6929 38.7169 20.9354 38.4904 21.9926 37.8702C23.0499 37.25 23.8539 36.276 24.2624 35.1204H28.0452C29.5849 35.1152 31.0789 34.5974 32.2915 33.6486C33.5041 32.6998 34.366 31.3742 34.7413 29.881C35.7531 29.7762 36.6903 29.3009 37.3727 28.5466C38.0551 27.7923 38.4344 26.8122 38.4375 25.7951V20.1971C38.4353 19.2193 38.0858 18.2741 37.4513 17.5302C36.8168 16.7862 35.9386 16.2919 34.9734 16.1354Z" fill="#004F36"/>
</svg>
