<svg width="39" height="40" viewBox="0 0 39 40" fill="none" xmlns="http://www.w3.org/2000/svg">
<path d="M33.6227 25.6306C32.7267 24.7351 31.5118 24.232 30.245 24.232C28.9782 24.232 27.7632 24.7351 26.8673 25.6306L24.3588 28.1378C21.2072 27.2382 18.3371 25.5499 16.0196 23.2324C13.7021 20.9149 12.0137 18.0447 11.1141 14.8932L13.6213 12.3847C14.5169 11.4887 15.02 10.2738 15.02 9.00699C15.02 7.74019 14.5169 6.52525 13.6213 5.6293L9.8439 1.85059C9.46741 1.4748 9.01106 1.1887 8.50877 1.01356C8.00648 0.838415 7.47118 0.77874 6.94266 0.838968C6.41413 0.899195 5.90598 1.07777 5.45598 1.36143C5.00597 1.64509 4.62569 2.02653 4.3434 2.47739L1.1851 7.52633C0.608316 8.44995 0.242626 9.48954 0.114151 10.5708C-0.0143235 11.6522 0.0975882 12.7485 0.441892 13.7815C2.38504 19.6092 5.6583 24.9045 10.0025 29.248C14.3466 33.5915 19.6424 36.864 25.4704 38.8062C26.5035 39.1505 27.5998 39.2624 28.6811 39.134C29.7624 39.0055 30.802 38.6398 31.7256 38.063L36.7746 34.9111C37.2254 34.6288 37.6069 34.2485 37.8905 33.7985C38.1742 33.3485 38.3528 32.8404 38.413 32.3119C38.4732 31.7833 38.4135 31.248 38.2384 30.7457C38.0633 30.2435 37.7772 29.7871 37.4014 29.4106L33.6227 25.6306Z" fill="#004F36"/>
<path d="M21.8081 9.76874C23.843 9.77078 25.7941 10.5801 27.233 12.019C28.6719 13.4579 29.4812 15.4089 29.4832 17.4438C29.4832 17.7831 29.618 18.1085 29.8579 18.3484C30.0978 18.5883 30.4231 18.723 30.7624 18.723C31.1017 18.723 31.427 18.5883 31.6669 18.3484C31.9068 18.1085 32.0416 17.7831 32.0416 17.4438C32.0385 14.7307 30.9594 12.1295 29.0409 10.2111C27.1224 8.29257 24.5213 7.21342 21.8081 7.21037C21.4688 7.21037 21.1435 7.34515 20.9036 7.58504C20.6637 7.82493 20.5289 8.1503 20.5289 8.48956C20.5289 8.82882 20.6637 9.15419 20.9036 9.39408C21.1435 9.63397 21.4688 9.76874 21.8081 9.76874Z" fill="#004F36"/>
<path d="M21.8081 3.37282C25.5386 3.37722 29.1151 4.86112 31.753 7.49899C34.3908 10.1369 35.8747 13.7133 35.8791 17.4438C35.8791 17.7831 36.0139 18.1085 36.2538 18.3484C36.4937 18.5883 36.8191 18.723 37.1583 18.723C37.4976 18.723 37.8229 18.5883 38.0628 18.3484C38.3027 18.1085 38.4375 17.7831 38.4375 17.4438C38.4324 13.035 36.6788 8.80822 33.5613 5.6907C30.4437 2.57318 26.2169 0.819531 21.8081 0.814453C21.4688 0.814453 21.1435 0.949224 20.9036 1.18912C20.6637 1.42901 20.5289 1.75438 20.5289 2.09364C20.5289 2.4329 20.6637 2.75826 20.9036 2.99816C21.1435 3.23805 21.4688 3.37282 21.8081 3.37282Z" fill="#004F36"/>
<path d="M21.8081 16.1647C22.1474 16.1647 22.4727 16.2994 22.7126 16.5393C22.9525 16.7792 23.0873 17.1046 23.0873 17.4438C23.0873 17.7831 23.2221 18.1085 23.462 18.3484C23.7018 18.5883 24.0272 18.723 24.3665 18.723C24.7057 18.723 25.0311 18.5883 25.271 18.3484C25.5109 18.1085 25.6457 17.7831 25.6457 17.4438C25.6457 16.4261 25.2413 15.45 24.5217 14.7303C23.802 14.0106 22.8259 13.6063 21.8081 13.6063C21.4688 13.6063 21.1435 13.7411 20.9036 13.981C20.6637 14.2209 20.5289 14.5462 20.5289 14.8855C20.5289 15.2247 20.6637 15.5501 20.9036 15.79C21.1435 16.0299 21.4688 16.1647 21.8081 16.1647Z" fill="#004F36"/>
</svg>
