<svg width="37" height="37" viewBox="0 0 37 37" fill="none" xmlns="http://www.w3.org/2000/svg">
<path d="M12.6201 4.87012H12.3201C9.79988 4.87012 8.53976 4.87012 7.57716 5.36059C6.73043 5.79202 6.04202 6.48043 5.61059 7.32716C5.12012 8.28976 5.12012 9.54988 5.12012 12.0701V12.3701M12.6201 31.8701H12.3201C9.79988 31.8701 8.53976 31.8701 7.57716 31.3796C6.73043 30.9482 6.04202 30.2598 5.61059 29.4131C5.12012 28.4505 5.12012 27.1904 5.12012 24.6701V24.3701M32.1201 12.3701V12.0701C32.1201 9.54988 32.1201 8.28976 31.6296 7.32716C31.1982 6.48043 30.5098 5.79202 29.6631 5.36059C28.7005 4.87012 27.4404 4.87012 24.9201 4.87012H24.6201M32.1201 24.3701V24.6701C32.1201 27.1904 32.1201 28.4505 31.6296 29.4131C31.1982 30.2598 30.5098 30.9482 29.6631 31.3796C28.7005 31.8701 27.4404 31.8701 24.9201 31.8701H24.6201M11.8701 12.3701V14.6201M25.3701 12.3701V14.6201M17.1201 19.2703C18.3201 19.2703 19.3701 18.2203 19.3701 17.0203V12.3701M23.4204 23.17C20.7204 25.87 16.3704 25.87 13.6704 23.17" stroke="black" stroke-width="3" stroke-linecap="round" stroke-linejoin="round"/>
</svg>
