<svg width="187" height="385" viewBox="0 0 187 385" fill="none" xmlns="http://www.w3.org/2000/svg">
<path d="M163.34 82.8892H23.8047C10.9984 82.8892 0.620117 93.2148 0.620117 105.956V361.728C0.620117 374.469 11.046 384.842 23.8523 384.842H163.388C176.194 384.842 186.62 374.469 186.62 361.728V105.956C186.62 93.2148 176.194 82.8418 163.388 82.8418L163.34 82.8892ZM8.95132 130.538H178.241V337.193H8.95132V130.538ZM23.8047 91.1781H163.34C171.529 91.1781 178.241 97.8092 178.241 106.003V122.297H8.95132V106.003C8.95132 97.8565 15.6163 91.1781 23.8523 91.1781H23.8047ZM163.34 376.553H23.8047C15.6163 376.553 8.90371 369.922 8.90371 361.728V345.434H178.194V361.728C178.194 369.874 171.529 376.553 163.293 376.553H163.34Z" fill="black"/>
<path d="M89.1676 111.592H122.064C124.349 111.592 126.253 109.744 126.253 107.423C126.253 105.103 124.397 103.255 122.064 103.255H89.1676C86.8824 103.255 84.9782 105.103 84.9782 107.423C84.9782 109.744 86.8348 111.592 89.1676 111.592Z" fill="black"/>
<path d="M65.0782 111.592H69.6961C71.9812 111.592 73.8855 109.744 73.8855 107.423C73.8855 105.103 72.0288 103.255 69.6961 103.255H65.0782C62.7931 103.255 60.8888 105.103 60.8888 107.423C60.8888 109.744 62.7455 111.592 65.0782 111.592Z" fill="black"/>
<path d="M44.426 21.9849C45.7477 23.8255 48.344 24.2502 50.185 22.8816C62.5998 13.8675 77.2804 9.05363 92.6218 9.05363C107.963 9.05363 122.644 13.8203 135.059 22.8816C136.9 24.203 139.496 23.8255 140.818 21.9849C141.337 21.2298 141.62 20.3803 141.62 19.578C141.62 18.3037 141.006 17.0295 139.921 16.2272C126.09 6.17477 109.71 0.841798 92.6218 0.841799C75.5338 0.841799 59.1538 6.17477 45.3229 16.2272C43.4819 17.5486 43.0571 20.1443 44.426 21.9849Z" fill="black"/>
<path d="M59.4361 42.6562C60.805 44.4967 63.3541 44.8743 65.195 43.5057C73.0782 37.6535 82.6135 34.5859 92.6209 34.5859C102.628 34.5859 112.164 37.7007 120.047 43.5057C121.888 44.8743 124.484 44.4967 125.806 42.6562C126.372 41.901 126.608 41.0516 126.608 40.2021C126.608 38.9278 126.042 37.7007 124.956 36.8984C115.609 30.008 104.422 26.3269 92.5737 26.3269C80.7253 26.3269 69.5378 29.9609 60.1913 36.8984C58.3504 38.2671 57.9727 40.8628 59.3417 42.6562L59.4361 42.6562Z" fill="black"/>
<path d="M74.4004 63.1394C75.7221 64.98 78.3184 65.4047 80.1594 64.0361C83.7941 61.3932 88.1369 59.9774 92.6686 59.9774C97.2002 59.9774 101.496 61.3932 105.178 64.0361C107.019 65.4047 109.615 64.98 110.937 63.1394C111.456 62.3843 111.739 61.582 111.739 60.7325C111.739 59.4582 111.126 58.184 110.04 57.3817C104.989 53.7005 98.994 51.7183 92.7158 51.7183C86.4376 51.7183 80.4426 53.6533 75.3917 57.3345C73.5507 58.6559 73.1259 61.2516 74.4948 63.0922L74.4004 63.1394Z" fill="black"/>
</svg>
