<svg width="38" height="37" viewBox="0 0 38 37" fill="none" xmlns="http://www.w3.org/2000/svg">
<path d="M26.4014 14.0193L17.3021 23.1186M17.3021 14.0193L26.4014 23.1186M4.74501 20.0249L11.2965 28.7602C11.8304 29.472 12.0973 29.8279 12.4355 30.0846C12.7351 30.3119 13.0744 30.4815 13.436 30.5848C13.8444 30.7014 14.2892 30.7014 15.1789 30.7014H26.7047C29.2528 30.7014 30.5268 30.7014 31.5 30.2055C32.3561 29.7693 33.0521 29.0733 33.4883 28.2173C33.9842 27.244 33.9842 25.97 33.9842 23.422V13.716C33.9842 11.1679 33.9842 9.89391 33.4883 8.92069C33.0521 8.06461 32.3561 7.3686 31.5 6.93241C30.5268 6.43652 29.2528 6.43652 26.7047 6.43652H15.1789C14.2892 6.43652 13.8444 6.43652 13.436 6.55313C13.0744 6.65641 12.7351 6.82605 12.4355 7.05339C12.0973 7.31006 11.8304 7.66595 11.2965 8.37772L4.74501 17.1131C4.35344 17.6352 4.15766 17.8962 4.08219 18.1829C4.01557 18.436 4.01557 18.702 4.08219 18.955C4.15766 19.2417 4.35344 19.5028 4.74501 20.0249Z" stroke="black" stroke-width="3.03311" stroke-linecap="round" stroke-linejoin="round"/>
</svg>
