<svg width="405" height="245" viewBox="0 0 405 245" fill="none" xmlns="http://www.w3.org/2000/svg">
<rect x="0.590379" y="1.17339" width="403.819" height="243.236" rx="8.85568" fill="#F6F8F7"/>
<rect x="0.590379" y="1.17339" width="403.819" height="243.236" rx="8.85568" stroke="#E5E7EB" stroke-width="1.18076"/>
<path d="M348.791 195.642L370.166 205.052L348.791 205.052L348.791 195.642ZM370.166 195.642L348.791 195.642L370.166 205.052L370.166 195.642Z" fill="#818181"/>
<path d="M203.115 195.642L315.22 205.052L203.115 205.052L203.115 195.642ZM315.22 195.642L203.115 195.642L315.22 205.052L315.22 195.642Z" fill="#818181"/>
<path d="M315.22 208.656L315.22 195.645L203.115 195.645" stroke="#818181" stroke-width="1.62639" stroke-linecap="round" stroke-linejoin="round"/>
<path d="M348.791 195.645L348.791 208.656" stroke="#818181" stroke-width="1.62639" stroke-linecap="round" stroke-linejoin="round"/>
<path d="M203.115 205.052L315.22 205.052" stroke="#818181" stroke-width="0.464683" stroke-linecap="round" stroke-linejoin="round"/>
<path d="M348.791 205.052L370.167 205.052" stroke="#818181" stroke-width="0.464683" stroke-linecap="round" stroke-linejoin="round"/>
<path d="M348.791 205.052L370.167 206.911L348.791 206.911L348.791 205.052ZM370.167 205.052L348.791 205.052L370.167 206.911L370.167 205.052Z" fill="#818181"/>
<path d="M191.844 205.052L315.217 206.911L191.844 206.911L191.844 205.052ZM315.217 205.052L191.844 205.052L315.217 206.911L315.217 205.052Z" fill="#818181"/>
<path d="M203.112 205.052L191.844 205.052" stroke="#818181" stroke-width="1.62639" stroke-linecap="round" stroke-linejoin="round"/>
<path d="M191.844 206.911L315.217 206.911" stroke="#818181" stroke-width="0.464683" stroke-linecap="round" stroke-linejoin="round"/>
<path d="M348.791 206.911L370.167 206.911" stroke="#818181" stroke-width="0.464683" stroke-linecap="round" stroke-linejoin="round"/>
<path d="M193.703 37.1859L203.113 60.1875L193.703 60.1875L193.703 37.1859ZM203.113 37.1859L193.703 37.1859L203.113 60.1875L203.113 37.1859Z" fill="#818181"/>
<path d="M193.703 93.7635L203.113 127.337L193.703 127.337L193.703 93.7635ZM203.113 93.7635L193.703 93.7635L203.113 127.337L203.113 93.7635Z" fill="#818181"/>
<path d="M193.703 160.907L203.113 205.052L193.703 205.052L193.703 160.907ZM203.113 160.907L193.703 160.907L203.113 205.052L203.113 160.907Z" fill="#818181"/>
<path d="M190.103 60.1875L203.114 60.1875L203.114 37.1859L190.103 37.1859" stroke="#818181" stroke-width="1.62639" stroke-linecap="round" stroke-linejoin="round"/>
<path d="M190.103 127.337L203.114 127.337L203.114 93.7635L190.103 93.7635" stroke="#818181" stroke-width="1.62639" stroke-linecap="round" stroke-linejoin="round"/>
<path d="M203.114 205.052L203.114 160.907L190.103 160.907" stroke="#818181" stroke-width="1.62639" stroke-linecap="round" stroke-linejoin="round"/>
<path d="M193.703 37.1859L193.703 60.1875" stroke="#818181" stroke-width="0.464683" stroke-linecap="round" stroke-linejoin="round"/>
<path d="M193.703 93.7635L193.703 127.337" stroke="#818181" stroke-width="0.464683" stroke-linecap="round" stroke-linejoin="round"/>
<path d="M193.703 160.907L193.703 205.052" stroke="#818181" stroke-width="0.464683" stroke-linecap="round" stroke-linejoin="round"/>
<path d="M191.844 37.1859L193.702 60.1875L191.844 60.1875L191.844 37.1859ZM193.702 37.1859L191.844 37.1859L193.702 60.1875L193.702 37.1859Z" fill="#818181"/>
<path d="M191.844 93.7635L193.702 127.337L191.844 127.337L191.844 93.7635ZM193.702 93.7635L191.844 93.7635L193.702 127.337L193.702 93.7635Z" fill="#818181"/>
<path d="M191.844 160.907L193.702 205.052L191.844 205.052L191.844 160.907ZM193.702 160.907L191.844 160.907L193.702 205.052L193.702 160.907Z" fill="#818181"/>
<path d="M191.844 37.1859L191.844 60.1875" stroke="#818181" stroke-width="0.464683" stroke-linecap="round" stroke-linejoin="round"/>
<path d="M191.844 93.7635L191.844 127.337" stroke="#818181" stroke-width="0.464683" stroke-linecap="round" stroke-linejoin="round"/>
<path d="M362.737 202.845L370.165 205.052L362.737 205.052L362.737 202.845ZM370.165 202.845L362.737 202.845L370.165 205.052L370.165 202.845Z" fill="#818181"/>
<path d="M370.165 202.846L362.737 202.846" stroke="#818181" stroke-width="1.62639" stroke-linecap="round" stroke-linejoin="round"/>
<path d="M203.115 37.1859L370.169 46.7119L203.115 46.7119L203.115 37.1859ZM370.169 37.1859L203.115 37.1859L370.169 46.7119L370.169 37.1859Z" fill="#818181"/>
<path d="M370.169 37.1851L203.115 37.1851" stroke="#818181" stroke-width="1.62639" stroke-linecap="round" stroke-linejoin="round"/>
<path d="M203.115 46.7119L370.169 46.7119L370.169 37.1859" stroke="#818181" stroke-width="1.62639" stroke-linecap="round" stroke-linejoin="round"/>
<path d="M363.082 46.711L370.168 195.642L363.082 195.642L363.082 46.711ZM370.168 46.711L363.082 46.711L370.168 195.642L370.168 46.711Z" fill="#818181"/>
<path d="M363.082 46.711L363.082 195.642" stroke="#818181" stroke-width="1.62639" stroke-linecap="round" stroke-linejoin="round"/>
<path d="M348.791 195.642L370.166 195.642" stroke="#818181" stroke-width="1.62639" stroke-linecap="round" stroke-linejoin="round"/>
<path d="M370.168 208.656L370.168 46.7129" stroke="#818181" stroke-width="1.62639" stroke-linecap="round" stroke-linejoin="round"/>
<path d="M341.473 204.704L341.473 214.346L340.543 214.346L340.543 204.704L341.473 204.704Z" stroke="#818181" stroke-width="0.464683" stroke-linecap="round" stroke-linejoin="round"/>
<path d="M342.633 204.705L341.472 204.705L341.472 203.775L341.355 203.775L341.355 203.543L342.633 203.543L342.633 204.705Z" stroke="#818181" stroke-width="0.464683" stroke-linecap="round" stroke-linejoin="round"/>
<path d="M331.832 204.648C331.832 209.934 336.131 214.232 341.416 214.232" stroke="#818181" stroke-width="0.464683" stroke-linecap="round" stroke-linejoin="round"/>
<path d="M318.238 204.705L317.309 204.705L317.309 219.459L318.238 219.459L318.238 204.705Z" stroke="#818181" stroke-width="0.464683" stroke-linecap="round" stroke-linejoin="round"/>
<path d="M316.148 203.543L316.148 204.705L317.31 204.705L317.31 203.775L317.426 203.775L317.426 203.543L316.148 203.543Z" stroke="#818181" stroke-width="0.464683" stroke-linecap="round" stroke-linejoin="round"/>
<path d="M331.945 204.645C331.945 208.769 330.222 212.68 327.202 215.468C325.82 216.598 324.946 217.23 322.594 218.335C320.89 218.993 319.07 219.341 317.25 219.341" stroke="#818181" stroke-width="0.464683" stroke-linecap="round" stroke-linejoin="round"/>
<path d="M347.859 205.052L348.788 205.052L348.788 203.194L347.859 203.194L347.859 205.052Z" stroke="#818181" stroke-width="1.04554" stroke-linecap="round" stroke-linejoin="round"/>
<path d="M315.218 205.052L316.147 205.052L316.147 204.704" stroke="#818181" stroke-width="1.04554" stroke-linecap="round" stroke-linejoin="round"/>
<path d="M316.147 203.542L316.147 203.194L315.218 203.194L315.218 205.052" stroke="#818181" stroke-width="1.04554" stroke-linecap="round" stroke-linejoin="round"/>
<path d="M281.411 46.7138L282.341 50.896L281.411 50.896L281.411 46.7138ZM282.341 46.7138L281.411 46.7138L282.341 50.896L282.341 46.7138Z" fill="#818181"/>
<path d="M281.411 50.8946L282.341 52.2886L281.411 52.2886L281.411 50.8946ZM282.341 50.8946L281.411 50.8946L282.341 52.2886L282.341 50.8946Z" fill="#818181"/>
<path d="M282.341 52.2886L282.341 46.7124" stroke="#818181" stroke-width="1.62639" stroke-linecap="round" stroke-linejoin="round"/>
<path d="M281.411 46.7137L281.411 53.2192" stroke="#818181" stroke-width="1.62639" stroke-linecap="round" stroke-linejoin="round"/>
<path d="M281.411 52.2886L282.341 52.2886" stroke="#818181" stroke-width="1.62639" stroke-linecap="round" stroke-linejoin="round"/>
<path d="M281.411 52.2899L289.776 53.2192L281.411 53.2192L281.411 52.2899ZM289.776 52.2898L281.411 52.2899L289.776 53.2192L289.776 52.2898Z" fill="#818181"/>
<path d="M281.411 53.2192L289.776 53.2192" stroke="#818181" stroke-width="1.62639" stroke-linecap="round" stroke-linejoin="round"/>
<path d="M301.743 46.5955L301.51 46.7117L301.278 46.944L301.278 47.1764L301.51 47.4087L301.743 47.5249L301.975 47.4087L302.207 47.1764L302.207 46.944L301.975 46.7117L301.743 46.5955Z" fill="#818181"/>
<path d="M302.096 47.3511C302.096 47.1157 301.92 46.9391 301.684 46.9391" stroke="#818181" stroke-width="1.04554" stroke-linecap="round" stroke-linejoin="round"/>
<path d="M301.744 47.062L294.541 47.062" stroke="#818181" stroke-width="1.04554" stroke-linecap="round" stroke-linejoin="round"/>
<path d="M294.487 46.9391C294.251 46.9391 294.075 47.1157 294.075 47.3511" stroke="#818181" stroke-width="1.04554" stroke-linecap="round" stroke-linejoin="round"/>
<path d="M302.092 47.3511C302.092 47.3511 302.092 47.3102 302.092 47.2694" stroke="#818181" stroke-width="1.04554" stroke-linecap="round" stroke-linejoin="round"/>
<path d="M302.074 47.2173C302.074 47.2173 302.035 47.1385 301.995 47.0991" stroke="#818181" stroke-width="1.04554" stroke-linecap="round" stroke-linejoin="round"/>
<path d="M301.937 47.04C301.937 47.04 301.858 46.9809 301.819 46.9613" stroke="#818181" stroke-width="1.04554" stroke-linecap="round" stroke-linejoin="round"/>
<path d="M301.766 46.9434C301.766 46.9434 301.725 46.9434 301.684 46.9434" stroke="#818181" stroke-width="1.04554" stroke-linecap="round" stroke-linejoin="round"/>
<path d="M294.486 46.9434C294.486 46.9434 294.445 46.9434 294.405 46.9434" stroke="#818181" stroke-width="1.04554" stroke-linecap="round" stroke-linejoin="round"/>
<path d="M294.348 46.9613C294.348 46.9613 294.269 47.0007 294.23 47.04" stroke="#818181" stroke-width="1.04554" stroke-linecap="round" stroke-linejoin="round"/>
<path d="M294.174 47.0991C294.174 47.0991 294.115 47.1779 294.095 47.2173" stroke="#818181" stroke-width="1.04554" stroke-linecap="round" stroke-linejoin="round"/>
<path d="M294.075 47.2694C294.075 47.2694 294.075 47.3102 294.075 47.3511" stroke="#818181" stroke-width="1.04554" stroke-linecap="round" stroke-linejoin="round"/>
<path d="M302.096 47.3511C302.096 47.1157 301.92 46.9391 301.684 46.9391" stroke="#818181" stroke-width="1.04554" stroke-linecap="round" stroke-linejoin="round"/>
<path d="M342.633 205.052L341.471 205.052" stroke="#818181" stroke-width="0.464683" stroke-linecap="round" stroke-linejoin="round"/>
<path d="M317.31 205.052L316.148 205.052" stroke="#818181" stroke-width="0.464683" stroke-linecap="round" stroke-linejoin="round"/>
<path d="M347.862 205.052L343.564 205.052" stroke="#818181" stroke-width="0.464683" stroke-linecap="round" stroke-linejoin="round"/>
<path d="M347.862 203.194L343.564 203.194" stroke="#818181" stroke-width="0.464683" stroke-linecap="round" stroke-linejoin="round"/>
<path d="M342.635 204.704L342.635 205.052L343.564 205.052L343.564 203.194L342.635 203.194L342.635 203.542" stroke="#818181" stroke-width="1.04554" stroke-linecap="round" stroke-linejoin="round"/>
<path d="M343.564 204.355L347.862 204.355L347.862 203.89L343.564 203.89L343.564 204.355Z" stroke="#818181" stroke-width="1.04554" stroke-linecap="round" stroke-linejoin="round"/>
<path d="M348.791 206.913L370.167 208.656L348.791 208.656L348.791 206.913ZM370.167 206.913L348.791 206.913L370.167 208.656L370.167 206.913Z" fill="#818181"/>
<path d="M191.844 206.913L315.217 208.656L191.844 208.656L191.844 206.913ZM315.217 206.913L191.844 206.913L315.217 208.656L315.217 206.913Z" fill="#818181"/>
<path d="M348.791 208.656L370.167 208.656" stroke="#818181" stroke-width="1.62639" stroke-linecap="round" stroke-linejoin="round"/>
<path d="M191.844 206.913L191.844 208.656" stroke="#818181" stroke-width="1.62639" stroke-linecap="round" stroke-linejoin="round"/>
<path d="M190.103 208.656L315.219 208.656" stroke="#818181" stroke-width="1.62639" stroke-linecap="round" stroke-linejoin="round"/>
<path d="M190.103 37.1859L191.845 60.1875L190.103 60.1875L190.103 37.1859ZM191.845 37.1859L190.103 37.1859L191.845 60.1875L191.845 37.1859Z" fill="#818181"/>
<path d="M190.103 93.7635L191.845 127.337L190.103 127.337L190.103 93.7635ZM191.845 93.7635L190.103 93.7635L191.845 127.337L191.845 93.7635Z" fill="#818181"/>
<path d="M190.103 160.91L191.845 208.656L190.103 208.656L190.103 160.91ZM191.845 160.91L190.103 160.91L191.845 208.656L191.845 160.91Z" fill="#818181"/>
<path d="M190.103 160.91L190.103 208.656" stroke="#818181" stroke-width="1.62639" stroke-linecap="round" stroke-linejoin="round"/>
<path d="M190.103 93.7635L190.103 127.337" stroke="#818181" stroke-width="1.62639" stroke-linecap="round" stroke-linejoin="round"/>
<path d="M190.103 37.1859L190.103 60.1875" stroke="#818181" stroke-width="1.62639" stroke-linecap="round" stroke-linejoin="round"/>
<path d="M191.844 206.911L191.844 160.907" stroke="#818181" stroke-width="0.464683" stroke-linecap="round" stroke-linejoin="round"/>
<path d="M289.777 50.8946L288.383 50.8946L289.777 46.7124L289.777 50.8946ZM289.777 52.2886L289.777 50.8946L288.383 50.8946L289.777 52.2886Z" fill="#818181"/>
<path d="M289.776 52.2886L282.341 52.2886L288.381 50.8946L289.776 52.2886Z" fill="#818181"/>
<path d="M282.341 46.7124L289.776 46.7124L289.776 52.2886L282.341 52.2886L282.341 46.7124Z" stroke="#818181" stroke-width="1.04554" stroke-linecap="round" stroke-linejoin="round"/>
<path d="M282.341 52.2886L288.381 50.8946L289.776 46.7124" stroke="#818181" stroke-width="1.04554" stroke-linecap="round" stroke-linejoin="round"/>
<path d="M262.479 124.931L262.479 116.749L262.451 116.749L260.823 117.627L260.578 116.662L262.624 115.567L263.704 115.567L263.704 124.931L262.479 124.931ZM272.458 115.423L272.458 116.46C272.199 116.446 271.867 116.46 271.507 116.518C269.519 116.849 268.468 118.304 268.252 119.846L268.295 119.846C268.741 119.255 269.519 118.765 270.556 118.765C272.213 118.765 273.38 119.961 273.38 121.79C273.38 123.505 272.213 125.089 270.268 125.089C268.266 125.089 266.955 123.533 266.955 121.099C266.955 119.255 267.618 117.8 268.54 116.878C269.318 116.115 270.355 115.639 271.536 115.495C271.91 115.438 272.227 115.423 272.458 115.423ZM270.268 124.11C271.363 124.11 272.098 123.202 272.098 121.862C272.098 120.523 271.334 119.716 270.167 119.716C269.404 119.716 268.698 120.191 268.352 120.868C268.266 121.012 268.208 121.2 268.208 121.43C268.237 122.972 268.943 124.11 270.268 124.11ZM275.234 125.075L275.234 124.038C275.507 124.066 275.824 124.038 276.256 123.994C276.991 123.893 277.683 123.591 278.216 123.087C278.835 122.525 279.282 121.704 279.454 120.595L279.411 120.595C278.893 121.229 278.144 121.603 277.207 121.603C275.522 121.603 274.441 120.335 274.441 118.736C274.441 116.965 275.723 115.409 277.639 115.409C279.555 115.409 280.736 116.965 280.736 119.356C280.736 121.416 280.045 122.856 279.123 123.749C278.403 124.455 277.409 124.887 276.4 125.003C275.94 125.075 275.536 125.089 275.234 125.075ZM277.539 116.374C276.458 116.374 275.695 117.325 275.695 118.65C275.695 119.817 276.4 120.638 277.495 120.638C278.345 120.638 279.008 120.22 279.339 119.658C279.411 119.543 279.454 119.399 279.454 119.197C279.454 117.598 278.864 116.374 277.539 116.374ZM282.835 125.089C282.331 125.089 281.985 124.7 281.985 124.182C281.985 123.649 282.345 123.274 282.85 123.274C283.354 123.274 283.7 123.649 283.7 124.182C283.7 124.7 283.368 125.089 282.835 125.089ZM285.04 115.567L290.946 115.567L290.946 116.403L286.869 124.931L285.558 124.931L289.621 116.648L289.621 116.619L285.04 116.619L285.04 115.567ZM295.004 124.931L295.004 116.749L294.975 116.749L293.347 117.627L293.102 116.662L295.148 115.567L296.228 115.567L296.228 124.931L295.004 124.931Z" fill="#818181"/>
<path d="M203.114 160.908L190.103 160.908L190.103 127.335L203.114 127.335L203.114 160.908Z" stroke="#0099FF" stroke-width="0.464683" stroke-linecap="round" stroke-linejoin="round"/>
<path d="M194.75 127.334L194.75 128.263L192.891 128.263L192.891 127.334L194.75 127.334Z" stroke="#0099FF" stroke-width="0.464683" stroke-linecap="round" stroke-linejoin="round"/>
<path d="M194.751 128.264L194.751 159.979L193.821 159.979L193.821 128.264L194.751 128.264Z" stroke="#0099FF" stroke-width="0.464683" stroke-linecap="round" stroke-linejoin="round"/>
<path d="M193.82 128.264L193.82 159.979L192.891 159.979L192.891 128.264L193.82 128.264Z" stroke="#0099FF" stroke-width="0.464683" stroke-linecap="round" stroke-linejoin="round"/>
<path d="M194.75 159.979L194.75 160.908L192.891 160.908L192.891 159.979L194.75 159.979Z" stroke="#0099FF" stroke-width="0.464683" stroke-linecap="round" stroke-linejoin="round"/>
<path d="M192.891 127.335L192.891 127.799L190.103 127.335L192.891 127.335Z" stroke="#0099FF" stroke-width="0.464683" stroke-linecap="round" stroke-linejoin="round"/>
<path d="M192.891 160.444L190.103 160.908L192.891 160.908L192.891 160.444Z" stroke="#0099FF" stroke-width="0.464683" stroke-linecap="round" stroke-linejoin="round"/>
<path d="M203.114 127.337L190.103 127.337" stroke="#0099FF" stroke-width="0.464683" stroke-linecap="round" stroke-linejoin="round"/>
<path d="M203.114 93.7612L190.103 93.7612L190.103 60.1878L203.114 60.1878L203.114 93.7612Z" stroke="#0099FF" stroke-width="0.464683" stroke-linecap="round" stroke-linejoin="round"/>
<path d="M194.75 60.1898L194.75 61.1191L192.891 61.1191L192.891 60.1898L194.75 60.1898Z" stroke="#0099FF" stroke-width="0.464683" stroke-linecap="round" stroke-linejoin="round"/>
<path d="M194.751 61.1155L194.751 92.8301L193.821 92.8301L193.821 61.1155L194.751 61.1155Z" stroke="#0099FF" stroke-width="0.464683" stroke-linecap="round" stroke-linejoin="round"/>
<path d="M193.82 61.1155L193.82 92.8301L192.891 92.8301L192.891 61.1155L193.82 61.1155Z" stroke="#0099FF" stroke-width="0.464683" stroke-linecap="round" stroke-linejoin="round"/>
<path d="M194.75 92.8318L194.75 93.7612L192.891 93.7612L192.891 92.8318L194.75 92.8318Z" stroke="#0099FF" stroke-width="0.464683" stroke-linecap="round" stroke-linejoin="round"/>
<path d="M192.891 60.1872L192.891 60.6519L190.103 60.1872L192.891 60.1872Z" stroke="#0099FF" stroke-width="0.464683" stroke-linecap="round" stroke-linejoin="round"/>
<path d="M192.891 93.2965L190.103 93.7612L192.891 93.7612L192.891 93.2965Z" stroke="#0099FF" stroke-width="0.464683" stroke-linecap="round" stroke-linejoin="round"/>
<path d="M203.114 60.1875L190.103 60.1875" stroke="#0099FF" stroke-width="0.464683" stroke-linecap="round" stroke-linejoin="round"/>
<path d="M115.208 181.42L125.886 181.42L125.886 132.65L155.859 132.65L155.859 117.358" stroke="#4F4F4F" stroke-width="0.552112" stroke-linecap="round" stroke-linejoin="round"/>
<path d="M78.8936 73.4796L155.857 73.4796L155.857 117.355" stroke="#4F4F4F" stroke-width="0.552112" stroke-linecap="round" stroke-linejoin="round"/>
<path d="M78.5074 73.7894L78.5074 69.8115L34.2422 69.8115L34.2422 141.437" stroke="#4F4F4F" stroke-width="0.552112" stroke-linecap="round" stroke-linejoin="round"/>
<path d="M67.9972 181.42L34.2422 181.42L34.2422 141.493" stroke="#4F4F4F" stroke-width="0.552112" stroke-linecap="round" stroke-linejoin="round"/>
<path d="M115.209 181.42L67.9961 181.42" stroke="#4F4F4F" stroke-width="0.552112" stroke-linecap="round" stroke-linejoin="round"/>
<rect opacity="0.3" x="34.2422" y="123.381" width="70.8455" height="57.8571" fill="#818181"/>
</svg>
