<svg width="78" height="77" viewBox="0 0 78 77" fill="none" xmlns="http://www.w3.org/2000/svg">
<path d="M37.9867 53.5633L59.5383 59.2078V3.96898L23.6061 13.3978V12.8436C23.6061 12.1632 23.3358 11.5106 22.8547 11.0294C22.3735 10.5483 21.7209 10.278 21.0405 10.278H3.0808C2.40035 10.278 1.74776 10.5483 1.2666 11.0294C0.785447 11.5106 0.515137 12.1632 0.515137 12.8436V51.3286C0.515137 52.0091 0.785447 52.6617 1.2666 53.1428C1.74776 53.624 2.40035 53.8943 3.0808 53.8943H19.9013L26.2796 75.156C26.438 75.6847 26.7627 76.1483 27.2055 76.4778C27.6483 76.8074 28.1855 76.9853 28.7375 76.9853H41.5658C41.9657 76.9853 42.3601 76.8919 42.7174 76.7124C43.0748 76.5329 43.3853 76.2724 43.6241 75.9516C43.8629 75.6308 44.0233 75.2586 44.0927 74.8648C44.1621 74.471 44.1385 74.0664 44.0237 73.6833L37.9867 53.5633Z" fill="#004F36"/>
<path d="M76.4845 0.54895C76.1733 0.310909 75.812 0.146785 75.4279 0.068998C75.0439 -0.00878943 74.6471 0.00179785 74.2678 0.0999587L64.6568 2.62201V60.565L74.2678 63.0896C74.4808 63.1436 74.6997 63.1712 74.9195 63.1717C75.5999 63.1717 76.2525 62.9014 76.7337 62.4203C77.2148 61.9391 77.4851 61.2865 77.4851 60.6061V2.58096C77.485 2.18827 77.3947 1.80085 77.2212 1.44856C77.0477 1.09626 76.7957 0.788492 76.4845 0.54895Z" fill="#004F36"/>
</svg>
