<svg width="78" height="77" viewBox="0 0 78 77" fill="none" xmlns="http://www.w3.org/2000/svg">
<path d="M74.9191 0.0166016H3.08079C2.40034 0.0166016 1.74775 0.286911 1.2666 0.768064C0.785446 1.24922 0.515137 1.9018 0.515137 2.58225V57.8438C0.515137 58.5243 0.785446 59.1769 1.2666 59.658C1.74775 60.1392 2.40034 60.4095 3.08079 60.4095H26.5745L36.8653 75.8445C37.0996 76.1959 37.417 76.484 37.7894 76.6832C38.1618 76.8825 38.5776 76.9868 38.9999 76.9868C39.4223 76.9868 39.8381 76.8825 40.2104 76.6832C40.5828 76.484 40.9002 76.1959 41.1345 75.8445L51.4254 60.4095H74.9191C75.5995 60.4095 76.2521 60.1392 76.7332 59.658C77.2144 59.1769 77.4847 58.5243 77.4847 57.8438V2.58225C77.4847 1.9018 77.2144 1.24922 76.7332 0.768064C76.2521 0.286911 75.5995 0.0166016 74.9191 0.0166016ZM38.9999 46.1983H18.4747V41.067H38.9999V46.1983ZM59.5251 33.3701H18.4747V28.2388H59.5251V33.3701ZM59.5251 20.5418H18.4747V15.4105H59.5251V20.5418Z" fill="#D8EAE5"/>
</svg>
