<svg width="80" height="77" viewBox="0 0 80 77" fill="none" xmlns="http://www.w3.org/2000/svg">
<path d="M41.814 0.767799C41.3329 0.286808 40.6804 0.0166016 40.0001 0.0166016C39.3198 0.0166016 38.6673 0.286808 38.1862 0.767799L0.452637 38.5013L4.08052 42.1292L9.21189 36.9978V74.4209C9.21189 75.1014 9.4822 75.754 9.96336 76.2351C10.4445 76.7163 11.0971 76.9866 11.7776 76.9866H29.7374C30.4178 76.9866 31.0704 76.7163 31.5516 76.2351C32.0327 75.754 32.303 75.1014 32.303 74.4209V41.067H47.6972V74.4209C47.6972 75.1014 47.9675 75.754 48.4486 76.2351C48.9298 76.7163 49.5824 76.9866 50.2628 76.9866H68.2226C68.9031 76.9866 69.5557 76.7163 70.0369 76.2351C70.518 75.754 70.7883 75.1014 70.7883 74.4209V36.9978L75.9197 42.1292L79.5476 38.5013L41.814 0.767799Z" fill="#004F36"/>
</svg>
