<svg width="25" height="25" viewBox="0 0 25 25" fill="none" xmlns="http://www.w3.org/2000/svg">
<path d="M14.5 2.80811V6.93865C14.5 7.4987 14.5 7.77872 14.609 7.99264C14.7049 8.1808 14.8578 8.33378 15.046 8.42965C15.2599 8.53865 15.5399 8.53865 16.1 8.53865H20.2305M9.5 15.5386L12.5 18.5386M12.5 18.5386L15.5 15.5386M12.5 18.5386L12.5 12.5386M14.5 2.53857H9.3C7.61984 2.53857 6.77976 2.53857 6.13803 2.86555C5.57354 3.15317 5.1146 3.61212 4.82698 4.1766C4.5 4.81834 4.5 5.65842 4.5 7.33857V17.7386C4.5 19.4187 4.5 20.2588 4.82698 20.9005C5.1146 21.465 5.57354 21.924 6.13803 22.2116C6.77976 22.5386 7.61984 22.5386 9.3 22.5386H15.7C17.3802 22.5386 18.2202 22.5386 18.862 22.2116C19.4265 21.924 19.8854 21.465 20.173 20.9005C20.5 20.2588 20.5 19.4187 20.5 17.7386V8.53857L14.5 2.53857Z" stroke="#D8EAE5" stroke-width="2" stroke-linecap="round" stroke-linejoin="round"/>
</svg>
