<svg width="25" height="25" viewBox="0 0 25 25" fill="none" xmlns="http://www.w3.org/2000/svg">
<path d="M16.1316 8.16994C15.7356 7.77393 15.5376 7.57592 15.4634 7.34759C15.3981 7.14675 15.3981 6.9304 15.4634 6.72956C15.5376 6.50123 15.7356 6.30322 16.1316 5.9072L18.97 3.06883C18.2168 2.7282 17.3806 2.53857 16.5002 2.53857C13.1865 2.53857 10.5002 5.22487 10.5002 8.53857C10.5002 9.02961 10.5592 9.50688 10.6705 9.96366C10.7896 10.4528 10.8492 10.6974 10.8387 10.8519C10.8276 11.0137 10.8035 11.0997 10.7289 11.2437C10.6576 11.3812 10.5211 11.5177 10.248 11.7908L4.00023 18.0386C3.1718 18.867 3.1718 20.2101 4.00023 21.0386C4.82865 21.867 6.1718 21.867 7.00023 21.0386L13.248 14.7908C13.5211 14.5177 13.6576 14.3812 13.7951 14.3099C13.9391 14.2353 14.0251 14.2112 14.1869 14.2002C14.3414 14.1896 14.586 14.2492 15.0751 14.3683C15.5319 14.4796 16.0092 14.5386 16.5002 14.5386C19.8139 14.5386 22.5002 11.8523 22.5002 8.53857C22.5002 7.65817 22.3106 6.82205 21.97 6.06883L19.1316 8.9072C18.7356 9.30322 18.5376 9.50123 18.3092 9.57542C18.1084 9.64068 17.8921 9.64068 17.6912 9.57542C17.4629 9.50123 17.2649 9.30322 16.8689 8.9072L16.1316 8.16994Z" stroke="#D8EAE5" stroke-width="2" stroke-linecap="round" stroke-linejoin="round"/>
</svg>
