<svg width="24" height="25" viewBox="0 0 24 25" fill="none" xmlns="http://www.w3.org/2000/svg">
<path d="M14 2.80811V6.93865C14 7.4987 14 7.77872 14.109 7.99264C14.2049 8.1808 14.3578 8.33378 14.546 8.42965C14.7599 8.53865 15.0399 8.53865 15.6 8.53865H19.7305M12 18.5386V12.5386M9 15.5386H15M14 2.53857H8.8C7.11984 2.53857 6.27976 2.53857 5.63803 2.86555C5.07354 3.15317 4.6146 3.61212 4.32698 4.1766C4 4.81834 4 5.65842 4 7.33857V17.7386C4 19.4187 4 20.2588 4.32698 20.9005C4.6146 21.465 5.07354 21.924 5.63803 22.2116C6.27976 22.5386 7.11984 22.5386 8.8 22.5386H15.2C16.8802 22.5386 17.7202 22.5386 18.362 22.2116C18.9265 21.924 19.3854 21.465 19.673 20.9005C20 20.2588 20 19.4187 20 17.7386V8.53857L14 2.53857Z" stroke="#D8EAE5" stroke-width="2" stroke-linecap="round" stroke-linejoin="round"/>
</svg>
