<svg width="24" height="25" viewBox="0 0 24 25" fill="none" xmlns="http://www.w3.org/2000/svg">
<path d="M7.5 11.5386H4.6C4.03995 11.5386 3.75992 11.5386 3.54601 11.6476C3.35785 11.7434 3.20487 11.8964 3.10899 12.0846C3 12.2985 3 12.5785 3 13.1386V21.5386M16.5 11.5386H19.4C19.9601 11.5386 20.2401 11.5386 20.454 11.6476C20.6422 11.7434 20.7951 11.8964 20.891 12.0846C21 12.2985 21 12.5785 21 13.1386V21.5386M16.5 21.5386V6.73857C16.5 5.61847 16.5 5.05842 16.282 4.63059C16.0903 4.25427 15.7843 3.94831 15.408 3.75656C14.9802 3.53857 14.4201 3.53857 13.3 3.53857H10.7C9.57989 3.53857 9.01984 3.53857 8.59202 3.75656C8.21569 3.94831 7.90973 4.25427 7.71799 4.63059C7.5 5.05842 7.5 5.61847 7.5 6.73857V21.5386M22 21.5386H2M11 7.53857H13M11 11.5386H13M11 15.5386H13" stroke="#D8EAE5" stroke-width="2" stroke-linecap="round" stroke-linejoin="round"/>
</svg>
