<svg width="19" height="19" viewBox="0 0 19 19" fill="none" xmlns="http://www.w3.org/2000/svg">
<path d="M18.0593 7.48503C18.0019 7.30719 17.8934 7.15016 17.7474 7.03354C17.6014 6.91691 17.4243 6.84584 17.2382 6.82918L12.0582 6.3588L10.0099 1.56454C9.85881 1.2132 9.51487 0.98584 9.13272 0.98584C8.75056 0.98584 8.40659 1.21323 8.25558 1.56541L6.20726 6.35884L1.02646 6.82918C0.840546 6.84621 0.663715 6.91743 0.517894 7.03402C0.372073 7.1506 0.263677 7.30742 0.206143 7.48503C0.087978 7.84847 0.197099 8.24706 0.485064 8.49832L4.40054 11.9322L3.24594 17.0181C3.16147 17.392 3.30659 17.7786 3.61688 18.0029C3.78363 18.1234 3.97877 18.1847 4.17553 18.1847C4.34519 18.1847 4.51344 18.139 4.66452 18.0486L9.13272 15.3781L13.5993 18.0486C13.9261 18.2453 14.3382 18.2273 14.6477 18.0029C14.7993 17.8932 14.9153 17.7413 14.9812 17.5662C15.0472 17.3911 15.0602 17.2005 15.0187 17.0181L13.8641 11.9322L17.7796 8.49902C17.9204 8.37601 18.022 8.21432 18.0717 8.03405C18.1215 7.85378 18.1171 7.66286 18.0593 7.48503Z" fill="#004F36"/>
</svg>
