<svg width="19" height="19" viewBox="0 0 19 19" fill="none" xmlns="http://www.w3.org/2000/svg">
<path d="M18.0066 7.48503C17.9492 7.30719 17.8407 7.15016 17.6947 7.03354C17.5487 6.91691 17.3716 6.84584 17.1854 6.82918L12.0054 6.3588L9.95716 1.56454C9.80608 1.2132 9.46214 0.98584 9.07998 0.98584C8.69783 0.98584 8.35385 1.21323 8.20284 1.56541L6.15453 6.35884L0.97373 6.82918C0.787812 6.84621 0.61098 6.91743 0.46516 7.03402C0.319339 7.1506 0.210942 7.30742 0.153409 7.48503C0.0352436 7.84847 0.144365 8.24706 0.432329 8.49832L4.3478 11.9322L3.19321 17.0181C3.10873 17.392 3.25385 17.7786 3.56415 18.0029C3.7309 18.1234 3.92604 18.1847 4.12279 18.1847C4.29245 18.1847 4.46071 18.139 4.61179 18.0486L9.07998 15.3781L13.5466 18.0486C13.8734 18.2453 14.2854 18.2273 14.595 18.0029C14.7466 17.8932 14.8625 17.7413 14.9285 17.5662C14.9945 17.3911 15.0075 17.2005 14.966 17.0181L13.8114 11.9322L17.7268 8.49902C17.8677 8.37601 17.9693 8.21432 18.019 8.03405C18.0687 7.85378 18.0644 7.66286 18.0066 7.48503Z" fill="#6B6B6B"/>
</svg>
