<svg width="32" height="38" viewBox="0 0 32 38" fill="none" xmlns="http://www.w3.org/2000/svg">
<path d="M28.3337 10.6666V10.3333C28.3337 7.53299 28.3337 6.13286 27.7887 5.0633C27.3093 4.12249 26.5444 3.35759 25.6036 2.87822C24.5341 2.33325 23.1339 2.33325 20.3337 2.33325H9.66699C6.86673 2.33325 5.4666 2.33325 4.39704 2.87822C3.45623 3.35759 2.69133 4.12249 2.21196 5.0633C1.66699 6.13286 1.66699 7.53299 1.66699 10.3333V27.6666C1.66699 30.4668 1.66699 31.867 2.21196 32.9365C2.69133 33.8773 3.45623 34.6422 4.39704 35.1216C5.4666 35.6666 6.86673 35.6666 9.66699 35.6666H15.8337M15.8337 17.3333H8.33366M14.167 23.9999H8.33366M21.667 10.6666H8.33366M25.0003 28.9999V19.8333C25.0003 18.4525 26.1196 17.3333 27.5003 17.3333C28.881 17.3333 30.0003 18.4525 30.0003 19.8333V28.9999C30.0003 31.7613 27.7617 33.9999 25.0003 33.9999C22.2389 33.9999 20.0003 31.7613 20.0003 28.9999V22.3333" stroke="#004F36" stroke-width="3.33333" stroke-linecap="round" stroke-linejoin="round"/>
</svg>
