<svg width="49" height="19" viewBox="0 0 49 19" fill="none" xmlns="http://www.w3.org/2000/svg">
<path d="M7.69638 18.2389C6.30438 18.2389 5.08038 17.9589 4.02438 17.3989C2.96838 16.8309 2.14438 16.0349 1.55238 15.0109C0.960375 13.9869 0.664375 12.7829 0.664375 11.3989V0.622905L3.97638 0.598906V11.3749C3.97638 11.9429 4.07238 12.4589 4.26438 12.9229C4.45638 13.3869 4.72038 13.7869 5.05638 14.1229C5.40038 14.4589 5.79638 14.7189 6.24438 14.9029C6.70038 15.0789 7.18438 15.1669 7.69638 15.1669C8.22438 15.1669 8.71238 15.0749 9.16038 14.8909C9.61638 14.7069 10.0124 14.4469 10.3484 14.1109C10.6844 13.7749 10.9444 13.3749 11.1284 12.9109C11.3204 12.4469 11.4164 11.9349 11.4164 11.3749V0.598906H14.7284V11.3989C14.7284 12.7829 14.4324 13.9869 13.8404 15.0109C13.2484 16.0349 12.4244 16.8309 11.3684 17.3989C10.3124 17.9589 9.08838 18.2389 7.69638 18.2389ZM16.1519 17.8789L21.4319 0.598906H26.3039L31.5839 17.8789H28.2239L23.5199 2.63891H24.1439L19.5119 17.8789H16.1519ZM19.3199 14.2789V11.2309H28.4399V14.2789H19.3199ZM33.7347 17.8789V0.598906H36.9987V8.56691L43.5747 0.598906H47.5587L40.3347 9.11891L48.0147 17.8789H43.8867L36.9987 10.0069V17.8789H33.7347Z" fill="#004F36"/>
</svg>
